<svg xmlns="http://www.w3.org/2000/svg" viewBox="0 0 100 100" width="100" height="100">
  <circle cx="50" cy="50" r="46" fill="#003399" stroke="#FFFFFF" stroke-width="4"/>
  <!-- Southern Cross Stars -->
  <g fill="#FFFFFF">
    <polygon points="50,22 52,28 58,28 53,32 55,38 50,34 45,38 47,32 42,28 48,28"/>
    <polygon points="50,70 52,76 58,76 53,80 55,86 50,82 45,86 47,80 42,76 48,76"/>
    <polygon points="25,48 27,54 33,54 28,58 30,64 25,60 20,64 22,58 17,54 23,54"/>
    <polygon points="75,48 77,54 83,54 78,58 80,64 75,60 70,64 72,58 67,54 73,54"/>
    <polygon points="60,60 61,64 65,64 62,67 63,71 60,68 57,71 58,67 55,64 59,64"/>
  </g>
</svg>
